<?xml version="1.0" encoding="UTF-8"?>
<svg id="Layer_1" xmlns="http://www.w3.org/2000/svg" version="1.1" viewBox="0 0 392.4 295">
  <!-- Generator: Adobe Illustrator 29.3.1, SVG Export Plug-In . SVG Version: 2.1.0 Build 151)  -->
  <defs>
    <style>
      .st0 {
        stroke-width: .7px;
      }

      .st0, .st1, .st2, .st3, .st4, .st5, .st6, .st7 {
        stroke: #fff;
      }

      .st0, .st2, .st3, .st4, .st5, .st6, .st7 {
        stroke-miterlimit: 10;
      }

      .st0, .st7 {
        fill: #fff200;
      }

      .st1 {
        stroke-linecap: round;
        stroke-linejoin: round;
        stroke-width: .4px;
      }

      .st1, .st2, .st3, .st4, .st5, .st6 {
        fill: none;
      }

      .st2 {
        stroke-width: .9px;
      }

      .st3 {
        stroke-width: .8px;
      }

      .st4 {
        stroke-width: .5px;
      }

      .st5 {
        stroke-width: .7px;
      }

      .st6 {
        stroke-width: .7px;
      }

      .st7 {
        stroke-width: .7px;
      }
    </style>
  </defs>
  <path class="st5" d="M112.7,127.1l24-12.6c13.3-7,17.1-23.6,7.6-33.7l-33-35.2c-6.7-7.1-17.9-8.6-27.3-3.6l-4,2.1c-9.8,5.2-14.9,16-12.1,25.8l13.1,45.7c3.7,12.8,18.9,18.3,31.8,11.5Z"/>
  <path class="st2" d="M135.4,71.3c21.4,2.2,73.3,23.5,81.3,36.7,10.1,16.7,12.3,36,7.7,53.5s-17.8,25.2-33.1,24.3-9.7.8-14.1,3.5-6.2,4.9-8.1,8c-6.7,10.8-19.5,16-31.7,12.3-15.1-4.6-27.7-15.2-37.8-28.7-50.2-66.4,30.2-110.2,35.9-109.6Z"/>
  <path class="st3" d="M136.7,289.2h0c6.4,0,11.8-4.2,12.9-10.1l18.9-100.5c2.5-12.7-6.8-23.1-20.6-23.1h-5.7c-13.7,0-24.9,10.3-24.9,23.1l6.3,99.1c.4,6.4,6.1,11.4,13.1,11.4Z"/>
  <path class="st6" d="M282.7,247.7h0c8.9-1.2,16.3-7.6,20.6-16.5l2.6-78.9c-.3-17-10.5-31.2-24-33.5l-23.9-4.7c-20.4-3.5-36.4,21.3-29.3,45.5l25,65.5c4.4,15,16.4,24.3,29,22.7Z"/>
  <path class="st1" d="M263.3,228.1h0c.8-3.5,2.5-6.5,4.8-8.8,5.6-5.6,14.6-6.2,21.2-1.8l46.9,31.3-7.9,34c-1.3,5.6-6.9,9.1-12.5,7.8h0c-5.6-1.3-9.1-6.9-7.8-12.5l3.3-14.2c.7-3.2-1.2-6.4-4.4-7.2l-30-7.2c-9.7-2.2-15.8-11.8-13.6-21.5Z"/>
  <path class="st4" d="M206.3,114.2c19.4-12.6,43.7-10.8,60.8,2.2h0c2.1,1.5,4.4,3.1,6.9,4,26.9,9.9,38.6-9.6,45.5-28.8,18-49.8-19.1-51.5-21.1-51.7,11.1-3.9,23.4-4.5,35.5-.9,27.8,8.3,44.6,37.1,38,65.4-7.3,31.6-39.6,51-70.8,43-7.4-1.9-14-5.2-19.7-9.5h0s4.7,7.1,4.7,7.1c5.9,22.5-3.6,47.1-24.8,59.3,0,0,0,0,0,0-5.5,3.1-12.1,3.2-17.8.4l-47.2-23.7c-8.7-4.4-14.4-13.3-14.3-23,.2-17.3,8.8-34.1,24.1-44Z"/>
  <path class="st0" d="M27.1,55.6l13.2-5.6,8-20.9,19.6-8.6-1.8-17.9c-.2-2.2,2.4-3.4,3.9-1.9l21.4,20.5s16.7,12.5,18.2,23.4l2.6,19.9c.9,7-1.6,13.9-6.7,18.7h0c-9,8.4-20.7,13-33,13,0,0-23.6-8.1-38.3-14.4-7-3-10.9-17.6-10.9-17.6,0-4.2-.8-6.9,3.8-8.6Z"/>
  <path class="st7" d="M73.9,292.2h66.1c11.4,0,20.7-9.3,20.7-20.7h0c0-12.7-11.3-22.4-23.9-20.5l-37,5.8c-14.9,2.3-25.9,15.2-25.9,30.3v5.2Z"/>
  <path class="st7" d="M253.5,293.4l66.1-.7c11.4-.1,20.6-9.5,20.5-20.9h0c-.1-12.7-11.6-22.3-24.1-20.2l-36.9,6.2c-14.9,2.5-25.8,15.5-25.6,30.6v5.2Z"/>
</svg>