<?xml version="1.0" encoding="UTF-8"?>
<svg id="Layer_1" xmlns="http://www.w3.org/2000/svg" version="1.1" viewBox="0 0 277.7 98.6">
  <!-- Generator: Adobe Illustrator 29.8.2, SVG Export Plug-In . SVG Version: 2.1.1 Build 3)  -->
  <defs>
    <style>
      .st0 {
        fill: #fff;
      }
    </style>
  </defs>
  <path class="st0" d="M10.7,65.1V29.2h8.2v2.5h-5.2v30.9h5.2v2.5h-8.2Z"/>
  <path class="st0" d="M23.1,44.2c0-2.2,0-4.1-.2-5.9h3.5l.2,3.6h0c1.1-2.1,3.6-4.1,7.2-4.1s7.7,1.8,7.7,9.3v13h-4v-12.6c0-3.5-1.3-6.4-5-6.4s-4.6,1.8-5.3,4c-.2.5-.3,1.2-.3,1.8v13.1h-4v-15.9Z"/>
  <path class="st0" d="M67.8,49c0,8.1-5.6,11.6-10.8,11.6s-10.4-4.3-10.4-11.2,4.8-11.6,10.8-11.6,10.5,4.5,10.5,11.2ZM50.5,49.2c0,4.8,2.7,8.4,6.6,8.4s6.6-3.6,6.6-8.5-1.8-8.4-6.5-8.4-6.7,4.3-6.7,8.5Z"/>
  <path class="st0" d="M82.3,44.2c0-2.2,0-4.1-.2-5.9h3.5l.2,3.6h0c1.1-2.1,3.6-4.1,7.2-4.1s7.7,1.8,7.7,9.3v13h-4v-12.6c0-3.5-1.3-6.4-5-6.4s-4.6,1.8-5.3,4c-.2.5-.3,1.2-.3,1.8v13.1h-4v-15.9Z"/>
  <path class="st0" d="M119.4,60l-.3-2.7h-.1c-1.2,1.7-3.6,3.2-6.7,3.2-4.4,0-6.7-3.1-6.7-6.3,0-5.3,4.7-8.1,13.1-8.1v-.5c0-1.8-.5-5-4.9-5s-4.1.6-5.7,1.6l-.9-2.6c1.8-1.2,4.4-1.9,7.2-1.9,6.7,0,8.3,4.5,8.3,8.9v8.1c0,1.9,0,3.7.4,5.2h-3.6ZM118.8,48.9c-4.3,0-9.2.7-9.2,4.9s1.7,3.8,3.7,3.8,4.6-1.8,5.3-3.6c.1-.4.2-.9.2-1.3v-3.8Z"/>
  <path class="st0" d="M129,44.2c0-2.2,0-4.1-.2-5.9h3.5l.2,3.5h.1c1.2-2.1,3.2-4,6.8-4s5.2,1.8,6.2,4.4h0c.7-1.2,1.5-2.2,2.4-2.8,1.3-1,2.7-1.5,4.8-1.5s7.2,1.9,7.2,9.4v12.8h-3.9v-12.3c0-4.2-1.5-6.7-4.7-6.7s-4,1.7-4.7,3.6c-.2.5-.3,1.3-.3,2v13.5h-3.9v-13c0-3.5-1.5-6-4.5-6s-4.3,2-4.9,4c-.2.6-.3,1.3-.3,1.9v13.1h-3.9v-15.9Z"/>
  <path class="st0" d="M168.7,49.9c0,5.4,3.5,7.6,7.5,7.6s4.5-.5,6-1.1l.7,2.8c-1.4.6-3.8,1.4-7.2,1.4-6.7,0-10.7-4.4-10.7-11s3.9-11.7,10.2-11.7,9,6.3,9,10.3,0,1.4-.1,1.8h-15.3ZM180.3,47c0-2.5-1-6.4-5.5-6.4s-5.8,3.7-6.1,6.4h11.6Z"/>
  <path class="st0" d="M200.1,38.3l4.8,12.9c.5,1.4,1,3.1,1.4,4.5h0c.4-1.3.9-3,1.4-4.5l4.3-12.8h4.2l-5.9,15.5c-2.8,7.5-4.8,11.3-7.5,13.6-1.9,1.7-3.9,2.4-4.9,2.6l-1-3.3c1-.3,2.3-.9,3.5-1.9,1.1-.9,2.4-2.4,3.3-4.4.2-.4.3-.7.3-.9s0-.5-.3-1l-8.1-20.1h4.3Z"/>
  <path class="st0" d="M221.6,49.9c0,5.4,3.5,7.6,7.5,7.6s4.5-.5,6-1.1l.7,2.8c-1.4.6-3.8,1.4-7.2,1.4-6.7,0-10.7-4.4-10.7-11s3.9-11.7,10.2-11.7,9,6.3,9,10.3,0,1.4-.1,1.8h-15.3ZM233.2,47c0-2.5-1-6.4-5.5-6.4s-5.8,3.7-6.1,6.4h11.6Z"/>
  <path class="st0" d="M246.7,32v6.3h5.7v3h-5.7v11.7c0,2.7.8,4.2,3,4.2s1.8-.1,2.3-.3l.2,3c-.8.3-2,.5-3.5.5s-3.3-.6-4.3-1.7c-1.1-1.2-1.5-3.1-1.5-5.7v-11.9h-3.4v-3h3.4v-5.2l3.9-1Z"/>
  <path class="st0" d="M262.6,29.2v35.9h-8.2v-2.5h5.2v-31h-5.2v-2.5h8.2Z"/>
</svg>