<?xml version="1.0" encoding="UTF-8" standalone="no"?>
<!DOCTYPE svg PUBLIC "-//W3C//DTD SVG 1.1//EN" "http://www.w3.org/Graphics/SVG/1.1/DTD/svg11.dtd">
<svg width="100%" height="100%" viewBox="0 0 2617 1015" version="1.1" xmlns="http://www.w3.org/2000/svg" xmlns:xlink="http://www.w3.org/1999/xlink" xml:space="preserve" xmlns:serif="http://www.serif.com/" style="fill-rule:evenodd;clip-rule:evenodd;stroke-linejoin:round;stroke-miterlimit:2;">
    <g transform="matrix(1,0,0,1,-442.303225,-1801.596285)">
        <g transform="matrix(1,0,0,1,-157.364237,1722.020355)">
            <path d="M741.146,407.773C736.342,409.694 730.881,407.353 728.96,402.549C727.039,397.745 729.379,392.285 734.184,390.363C748.636,384.583 761.261,380.889 772.273,378.972C777.371,378.085 782.23,381.503 783.117,386.6C784.005,391.698 780.586,396.557 775.489,397.444C765.555,399.173 754.183,402.559 741.146,407.773ZM819.177,407.885C815.801,403.964 816.244,398.039 820.165,394.663C824.086,391.288 830.01,391.73 833.386,395.652C847.958,412.578 853.101,440.922 854.336,473.475C854.532,478.645 850.493,483.002 845.323,483.198C840.152,483.394 835.795,479.356 835.599,474.185C834.553,446.596 831.527,422.23 819.177,407.885ZM835.852,530.615C835.864,525.441 840.075,521.251 845.249,521.263C850.423,521.275 854.614,525.486 854.602,530.66C854.539,556.775 855.031,582.547 859.936,603.929C861.093,608.972 857.938,614.006 852.895,615.163C847.852,616.32 842.818,613.165 841.661,608.122C836.471,585.5 835.786,558.245 835.852,530.615ZM875.443,660.848C870.971,658.245 869.454,652.501 872.057,648.03C874.661,643.558 880.405,642.041 884.876,644.645C892.144,648.876 901.197,651.141 912.389,651.245C927.787,651.389 939.875,650.079 949.246,645.21C953.838,642.825 959.502,644.616 961.888,649.208C964.273,653.8 962.482,659.464 957.89,661.849C946.249,667.897 931.342,670.173 912.215,669.994C897.225,669.855 885.176,666.515 875.443,660.848ZM990.981,608.388C989.949,613.458 984.995,616.737 979.925,615.705C974.854,614.673 971.576,609.718 972.608,604.648C976.307,586.475 978.068,562.453 978.735,530.926C978.844,525.752 983.133,521.641 988.306,521.751C993.479,521.86 997.59,526.149 997.481,531.322C996.784,564.283 994.848,589.389 990.981,608.388ZM997.708,474.238C997.749,479.412 993.582,483.646 988.408,483.687C983.234,483.728 979,479.561 978.959,474.387C978.908,467.934 978.837,461.266 978.75,454.375C978.457,431.121 978.557,412.479 980.105,397.634C980.641,392.488 985.255,388.745 990.401,389.281C995.547,389.818 999.29,394.431 998.754,399.578C997.266,413.852 997.217,431.778 997.499,454.139C997.586,461.06 997.657,467.757 997.708,474.238ZM1019.798,360.875C1015.003,362.821 1009.531,360.508 1007.585,355.714C1005.64,350.92 1007.952,345.447 1012.747,343.502C1020.993,340.155 1031.335,338.186 1044.335,337.422C1065.851,336.156 1082.117,339.047 1094.407,344.708C1099.106,346.873 1101.164,352.446 1098.999,357.146C1096.834,361.845 1091.261,363.903 1086.562,361.738C1076.481,357.095 1063.085,355.101 1045.436,356.139C1034.9,356.759 1026.481,358.163 1019.798,360.875ZM1112.002,399.681C1111.121,394.582 1114.545,389.727 1119.643,388.846C1124.742,387.965 1129.597,391.389 1130.478,396.487C1134.522,419.883 1131.831,447.973 1130.341,474.197C1130.047,479.363 1125.615,483.319 1120.449,483.025C1115.283,482.731 1111.327,478.299 1111.621,473.133C1113.029,448.345 1115.825,421.795 1112.002,399.681ZM1115.831,533.095C1114.134,528.207 1116.725,522.861 1121.613,521.164C1126.501,519.467 1131.847,522.058 1133.544,526.946C1138.041,539.9 1148.095,547.61 1167.836,547.339C1174.049,547.254 1180.972,547.142 1188.531,547.009C1193.704,546.919 1197.978,551.045 1198.068,556.219C1198.159,561.392 1194.033,565.666 1188.859,565.757C1181.274,565.89 1174.328,566.002 1168.094,566.087C1153.163,566.292 1142.088,563.003 1133.83,557.481C1125.168,551.689 1119.398,543.371 1115.831,533.095ZM1245.683,564.669C1240.51,564.771 1236.227,560.654 1236.125,555.481C1236.023,550.307 1240.14,546.025 1245.314,545.923C1268.32,545.469 1293.876,544.968 1321.071,544.489C1326.244,544.397 1330.518,548.524 1330.609,553.697C1330.701,558.87 1326.574,563.145 1321.401,563.236C1294.22,563.715 1268.678,564.215 1245.683,564.669ZM1378.178,562.32C1373.004,562.395 1368.743,558.255 1368.668,553.081C1368.593,547.908 1372.733,543.647 1377.907,543.572C1402.616,543.215 1428.072,542.907 1453.709,542.692C1458.883,542.648 1463.119,546.814 1463.163,551.988C1463.206,557.162 1459.041,561.398 1453.867,561.441C1428.267,561.656 1402.85,561.963 1378.178,562.32ZM1510.621,561.132C1505.447,561.143 1501.237,556.952 1501.225,551.778C1501.214,546.603 1505.406,542.393 1510.58,542.382C1536.292,542.325 1561.769,542.393 1586.44,542.629C1591.614,542.678 1595.775,546.919 1595.725,552.093C1595.676,557.267 1591.435,561.427 1586.261,561.378C1561.661,561.143 1536.259,561.075 1510.621,561.132ZM1642.943,562.273C1637.77,562.154 1633.667,557.858 1633.786,552.685C1633.904,547.512 1638.201,543.409 1643.373,543.528C1670.804,544.157 1696.457,545.073 1719.374,546.346C1724.541,546.633 1728.502,551.06 1728.215,556.226C1727.928,561.393 1723.501,565.354 1718.335,565.067C1695.601,563.804 1670.154,562.897 1642.943,562.273ZM1774.361,569.627C1769.223,569.015 1765.55,564.346 1766.162,559.208C1766.775,554.07 1771.444,550.397 1776.582,551.009C1789.396,552.538 1800.178,554.319 1808.538,556.353C1826.171,560.642 1840.488,567.554 1852.118,576.565C1856.209,579.734 1856.957,585.628 1853.788,589.718C1850.619,593.808 1844.725,594.556 1840.635,591.387C1830.899,583.844 1818.866,578.162 1804.106,574.571C1796.326,572.679 1786.287,571.05 1774.361,569.627ZM1869.468,633.171C1867.728,628.298 1870.272,622.93 1875.145,621.19C1880.018,619.45 1885.386,621.994 1887.126,626.867C1895.115,649.246 1898.337,675.648 1899.032,704.37C1899.157,709.543 1895.059,713.844 1889.886,713.969C1884.714,714.094 1880.412,709.996 1880.287,704.824C1879.645,678.28 1876.851,653.853 1869.468,633.171ZM1879.249,760.95C1879.491,755.782 1883.883,751.782 1889.052,752.023C1894.221,752.265 1898.221,756.658 1897.979,761.826C1896.822,786.556 1895.111,812.06 1894.184,837.387C1893.994,842.558 1889.642,846.602 1884.472,846.412C1879.301,846.223 1875.257,841.871 1875.446,836.701C1876.376,811.31 1878.09,785.742 1879.249,760.95ZM1875.262,894.232C1875.047,889.062 1879.07,884.691 1884.24,884.476C1889.41,884.261 1893.781,888.284 1893.996,893.453C1895.057,918.982 1898.081,943.515 1904.75,965.9C1906.227,970.858 1903.401,976.084 1898.442,977.561C1893.483,979.038 1888.258,976.212 1886.78,971.253C1879.689,947.451 1876.391,921.377 1875.262,894.232ZM1912.932,1025.007C1909.848,1020.852 1910.717,1014.975 1914.872,1011.891C1919.027,1008.807 1924.904,1009.677 1927.987,1013.832C1941.114,1031.516 1959.062,1046.163 1983.344,1056.735C1988.088,1058.8 1990.263,1064.328 1988.198,1069.073C1986.132,1073.817 1980.604,1075.991 1975.86,1073.926C1948.225,1061.895 1927.87,1045.133 1912.932,1025.007ZM2032.663,1089.932C2027.554,1089.112 2024.072,1084.299 2024.891,1079.19C2025.711,1074.081 2030.524,1070.599 2035.633,1071.419C2056.494,1074.766 2080.242,1076.205 2107.259,1075.496C2107.949,1075.478 2108.636,1075.456 2109.32,1075.43C2114.491,1075.235 2118.847,1079.274 2119.043,1084.444C2119.238,1089.615 2115.199,1093.971 2110.029,1094.167C2109.273,1094.195 2108.514,1094.22 2107.75,1094.24C2079.427,1094.983 2054.532,1093.441 2032.663,1089.932ZM2168.525,1081.81C2163.736,1083.769 2158.257,1081.472 2156.298,1076.683C2154.339,1071.893 2156.637,1066.415 2161.426,1064.456C2185.284,1054.697 2204.148,1039.748 2221.948,1024.611C2225.89,1021.259 2231.812,1021.738 2235.163,1025.68C2238.515,1029.622 2238.036,1035.543 2234.095,1038.895C2214.844,1055.265 2194.327,1071.256 2168.525,1081.81ZM2277.43,1003.812C2273.146,1006.713 2267.312,1005.591 2264.411,1001.307C2261.509,997.023 2262.632,991.189 2266.916,988.287C2280.08,979.371 2294.146,972.135 2310.192,967.909C2320.379,965.227 2330.552,962.85 2340.695,960.737C2345.761,959.682 2350.73,962.938 2351.785,968.004C2352.84,973.069 2349.584,978.038 2344.518,979.093C2334.692,981.14 2324.836,983.442 2314.967,986.041C2301.035,989.71 2288.86,996.071 2277.43,1003.812ZM2399.822,969.964C2394.689,970.612 2389.994,966.972 2389.345,961.838C2388.697,956.705 2392.338,952.01 2397.471,951.362C2423.342,948.092 2448.797,946.092 2473.542,944.642C2478.707,944.339 2483.147,948.287 2483.449,953.453C2483.752,958.618 2479.804,963.057 2474.639,963.36C2450.302,964.786 2425.266,966.748 2399.822,969.964ZM2531.251,960.619C2526.082,960.848 2521.699,956.837 2521.471,951.668C2521.242,946.498 2525.253,942.116 2530.422,941.887C2556.812,940.719 2581.989,939.523 2605.521,937.224C2610.671,936.721 2615.26,940.494 2615.764,945.643C2616.267,950.793 2612.494,955.382 2607.345,955.886C2583.501,958.215 2557.99,959.436 2531.251,960.619ZM2664.696,946.829C2659.664,948.036 2654.599,944.93 2653.393,939.899C2652.186,934.867 2655.291,929.803 2660.323,928.596C2685.287,922.609 2707.156,913.607 2724.961,899.229C2728.986,895.978 2734.894,896.607 2738.144,900.633C2741.395,904.659 2740.766,910.566 2736.74,913.817C2716.866,929.865 2692.561,940.146 2664.696,946.829ZM2774.02,866.235C2771.769,870.894 2766.159,872.849 2761.5,870.598C2756.842,868.348 2754.886,862.738 2757.137,858.079C2766.141,839.442 2772.157,816.498 2774.909,788.234C2775.411,783.084 2779.999,779.31 2785.149,779.811C2790.298,780.313 2794.072,784.901 2793.571,790.051C2790.568,820.897 2783.846,845.897 2774.02,866.235ZM2795.025,732.055C2795.208,737.226 2791.158,741.573 2785.987,741.756C2780.816,741.939 2776.469,737.889 2776.286,732.718C2775.495,710.366 2773.264,685.634 2769.495,658.258C2768.789,653.133 2772.378,648.398 2777.503,647.692C2782.629,646.987 2787.364,650.575 2788.069,655.701C2791.934,683.773 2794.213,709.135 2795.025,732.055ZM2778.82,599.194C2779.772,604.28 2776.415,609.182 2771.329,610.133C2766.243,611.085 2761.341,607.728 2760.39,602.642C2759.277,596.691 2758.104,590.635 2756.871,584.473C2752.809,564.183 2750.436,544.838 2749.576,526.445C2749.334,521.277 2753.334,516.884 2758.502,516.642C2763.671,516.401 2768.063,520.4 2768.305,525.569C2769.124,543.073 2771.391,561.483 2775.256,580.793C2776.505,587.034 2777.693,593.167 2778.82,599.194ZM2770.723,470.658C2769.992,475.78 2765.24,479.345 2760.117,478.614C2754.995,477.883 2751.43,473.13 2752.161,468.008C2756.128,440.218 2763.945,415.202 2774.77,392.987C2777.036,388.336 2782.653,386.4 2787.304,388.666C2791.956,390.933 2793.892,396.549 2791.625,401.201C2781.605,421.766 2774.396,444.932 2770.723,470.658ZM2821.476,355.949C2818.085,359.857 2812.159,360.278 2808.251,356.887C2804.342,353.497 2803.922,347.571 2807.312,343.662C2824.928,323.355 2845.67,306.813 2868.299,294.097C2872.81,291.562 2878.53,293.167 2881.065,297.677C2883.6,302.188 2881.995,307.908 2877.484,310.443C2856.705,322.119 2837.652,337.302 2821.476,355.949ZM2927.814,289.783C2922.826,291.159 2917.659,288.227 2916.283,283.239C2914.906,278.251 2917.839,273.085 2922.826,271.708C2948.258,264.691 2974.675,261.757 3000.721,262.964C3005.89,263.203 3009.892,267.594 3009.652,272.763C3009.413,277.931 3005.022,281.933 2999.854,281.694C2975.765,280.578 2951.334,283.293 2927.814,289.783ZM3053.414,290.843C3048.464,289.336 3045.669,284.094 3047.176,279.144C3048.683,274.194 3053.925,271.399 3058.875,272.906C3084.129,280.596 3107.925,292.642 3128.848,309.082C3132.917,312.279 3133.625,318.178 3130.428,322.246C3127.231,326.315 3121.332,327.022 3117.264,323.825C3098.175,308.826 3076.453,297.859 3053.414,290.843ZM3154.227,362.971C3151.268,358.727 3152.313,352.878 3156.557,349.92C3160.802,346.961 3166.651,348.006 3169.609,352.251C3176.94,362.769 3183.446,374.224 3188.986,386.624C3194.609,399.209 3198.316,412.085 3200.521,425.207C3201.378,430.31 3197.931,435.149 3192.829,436.006C3187.726,436.864 3182.887,433.417 3182.03,428.314C3180.085,416.738 3176.827,405.375 3171.867,394.273C3166.822,382.982 3160.902,372.549 3154.227,362.971ZM3183.167,482.512C3183.657,477.361 3188.236,473.576 3193.387,474.066C3198.538,474.556 3202.322,479.136 3201.833,484.287C3199.48,509.025 3194.232,534.353 3188.779,559.955C3187.701,565.016 3182.717,568.249 3177.656,567.171C3172.596,566.093 3169.362,561.109 3170.44,556.049C3175.74,531.165 3180.881,506.555 3183.167,482.512ZM3159.318,612.201C3160.161,607.095 3164.989,603.634 3170.094,604.477C3175.2,605.319 3178.661,610.147 3177.818,615.253C3175.799,627.491 3174.198,639.742 3173.336,651.97C3172.972,657.131 3168.486,661.026 3163.324,660.662C3158.163,660.297 3154.268,655.811 3154.632,650.65C3155.536,637.846 3157.204,625.017 3159.318,612.201Z" style="fill:rgb(15,255,0);"/>
        </g>
        <g transform="matrix(12.426015,0,0,12.426015,-12440.928984,-21470.383676)">
            <path d="M1065.579,1908.943L1065.579,1877.093L1077.679,1877.093L1077.679,1872.843L1048.529,1872.843L1048.529,1877.093L1060.629,1877.093L1060.629,1908.943L1065.579,1908.943Z" style="fill:white;"/>
            <path d="M1082.429,1908.943L1087.179,1908.943L1087.179,1895.643C1087.179,1894.093 1087.179,1891.743 1087.979,1890.343C1088.629,1889.143 1090.379,1886.993 1093.879,1886.993C1099.279,1886.993 1099.279,1891.843 1099.279,1894.093L1099.279,1908.943L1104.079,1908.943L1104.079,1893.243C1104.079,1889.593 1103.729,1888.393 1103.229,1887.393C1101.779,1884.343 1097.979,1883.393 1095.329,1883.393C1091.829,1883.393 1088.729,1884.893 1087.179,1887.543L1087.179,1872.893L1082.429,1872.893L1082.429,1908.943Z" style="fill:white;"/>
            <g transform="matrix(1,0,0,1,-4.21578,0)">
                <path d="M1133.879,1897.243C1133.979,1893.143 1134.229,1883.193 1122.979,1883.193C1121.529,1883.193 1118.529,1883.343 1116.129,1885.043C1112.179,1887.793 1111.179,1891.893 1111.179,1896.843C1111.179,1904.793 1114.929,1909.693 1122.829,1909.693C1127.879,1909.693 1130.379,1907.593 1131.479,1906.343C1133.279,1904.393 1133.479,1902.343 1133.629,1901.093L1128.929,1901.093C1128.529,1904.693 1126.079,1906.293 1123.029,1906.293C1117.879,1906.293 1115.729,1902.443 1115.829,1897.243L1133.879,1897.243ZM1116.029,1893.943C1116.129,1888.393 1119.829,1886.543 1122.879,1886.543C1128.679,1886.543 1129.129,1891.543 1129.079,1893.943L1116.029,1893.943Z" style="fill:white;"/>
            </g>
        </g>
        <g transform="matrix(12.426015,0,0,12.426015,-13621.767337,-22746.52593)">
            <g transform="matrix(1,0,0,1,1.850955,0)">
                <path d="M1148.256,2030.658C1148.256,2032.108 1148.356,2034.958 1150.056,2037.258C1152.556,2040.558 1156.756,2041.008 1158.656,2041.008C1164.606,2041.008 1169.856,2037.408 1169.856,2030.758L1169.856,2004.358L1164.856,2004.358L1164.856,2029.408C1164.856,2030.508 1164.856,2032.808 1164.006,2034.258C1162.956,2035.958 1161.056,2036.808 1159.006,2036.808C1156.456,2036.808 1154.956,2035.558 1154.356,2034.608C1153.606,2033.458 1153.606,2031.908 1153.556,2030.658L1148.256,2030.658Z" style="fill:white;fill-rule:nonzero;"/>
            </g>
            <path d="M1177.906,2015.358L1177.906,2032.208C1177.906,2037.158 1180.806,2040.708 1187.006,2040.708C1192.406,2040.708 1194.106,2037.908 1195.006,2036.158L1195.106,2040.458L1200.006,2040.458C1199.956,2039.058 1199.856,2036.258 1199.856,2035.758L1199.856,2015.358L1195.006,2015.358L1195.006,2029.558C1195.006,2030.808 1195.006,2032.758 1193.956,2034.258C1192.606,2036.258 1190.406,2037.058 1188.056,2037.058C1183.256,2037.058 1182.706,2033.958 1182.706,2031.508L1182.706,2015.358L1177.906,2015.358Z" style="fill:white;fill-rule:nonzero;"/>
            <path d="M1209.106,2040.458L1213.806,2040.458L1213.806,2026.008C1213.806,2020.958 1216.956,2018.508 1220.356,2018.508C1221.956,2018.508 1223.606,2019.058 1224.806,2020.208C1225.956,2021.358 1226.156,2022.858 1226.156,2024.508L1226.156,2040.458L1230.956,2040.458L1230.956,2023.408C1230.956,2015.708 1224.106,2014.858 1221.856,2014.858C1216.156,2014.858 1214.356,2018.358 1213.806,2019.408L1213.756,2015.358L1209.056,2015.358L1209.106,2018.258L1209.106,2040.458Z" style="fill:white;fill-rule:nonzero;"/>
            <path d="M1239.006,2042.408C1239.206,2045.808 1239.506,2050.508 1249.556,2050.508C1253.006,2050.508 1257.906,2050.008 1260.006,2046.008C1261.006,2044.108 1261.206,2041.658 1261.206,2035.608L1261.256,2019.908L1261.356,2015.358L1256.806,2015.358L1256.756,2018.808C1255.756,2017.508 1253.906,2015.008 1248.856,2015.008C1242.706,2015.008 1237.706,2019.158 1237.706,2027.658C1237.706,2031.008 1238.406,2034.358 1240.556,2036.908C1242.656,2039.508 1245.956,2040.008 1248.256,2040.008C1249.756,2040.008 1254.506,2039.908 1256.506,2035.758C1256.506,2042.558 1256.406,2047.308 1249.856,2047.308C1245.406,2047.308 1244.206,2045.208 1244.006,2042.408L1239.006,2042.408ZM1249.456,2036.508C1243.706,2036.508 1242.556,2031.408 1242.556,2027.558C1242.556,2024.358 1243.356,2018.358 1249.306,2018.358C1251.456,2018.358 1253.456,2019.208 1254.706,2020.558C1255.956,2021.858 1256.656,2023.658 1256.656,2026.808C1256.656,2031.358 1255.956,2032.708 1254.956,2034.008C1253.806,2035.508 1252.206,2036.508 1249.456,2036.508Z" style="fill:white;fill-rule:nonzero;"/>
            <g transform="matrix(1,0,0,1,-4.104292,0)">
                <rect x="1270.156" y="2004.408" width="4.7" height="36.05" style="fill:white;fill-rule:nonzero;"/>
            </g>
            <g transform="matrix(1,0,0,1,-7.323345,0)">
                <path d="M1304.856,2028.758C1304.956,2024.658 1305.206,2014.708 1293.956,2014.708C1292.506,2014.708 1289.506,2014.858 1287.106,2016.558C1283.156,2019.308 1282.156,2023.408 1282.156,2028.358C1282.156,2036.308 1285.906,2041.208 1293.806,2041.208C1298.856,2041.208 1301.356,2039.108 1302.456,2037.858C1304.256,2035.908 1304.456,2033.858 1304.606,2032.608L1299.906,2032.608C1299.506,2036.208 1297.056,2037.808 1294.006,2037.808C1288.856,2037.808 1286.706,2033.958 1286.806,2028.758L1304.856,2028.758ZM1287.006,2025.458C1287.106,2019.908 1290.806,2018.058 1293.856,2018.058C1299.656,2018.058 1300.106,2023.058 1300.056,2025.458L1287.006,2025.458Z" style="fill:white;fill-rule:nonzero;"/>
            </g>
        </g>
        <g transform="matrix(12.426015,0,0,12.426015,-16111.96936,-24656.071676)">
            <path d="M1510.673,2194.132L1523.823,2194.132C1526.673,2194.132 1529.473,2194.132 1531.973,2192.482C1533.173,2191.682 1536.323,2189.182 1536.323,2184.282C1536.323,2177.382 1531.223,2175.882 1529.123,2175.282C1530.873,2174.632 1535.223,2173.082 1535.223,2167.132C1535.223,2164.282 1534.223,2162.182 1532.673,2160.682C1530.423,2158.482 1527.973,2158.032 1523.573,2158.032L1510.673,2158.032L1510.673,2194.132ZM1515.523,2162.132L1522.723,2162.132C1525.473,2162.132 1530.023,2162.132 1530.023,2167.582C1530.023,2173.282 1524.223,2173.282 1522.523,2173.282L1515.523,2173.282L1515.523,2162.132ZM1515.523,2177.582L1524.273,2177.582C1528.673,2177.582 1531.173,2180.232 1531.173,2183.832C1531.173,2187.982 1528.023,2190.082 1524.073,2190.082L1515.523,2190.082L1515.523,2177.582Z" style="fill:white;fill-rule:nonzero;"/>
        </g>
        <g transform="matrix(1,0,0,1,-157.364237,1722.020355)">
            <path d="M3206.476,675.731C3206.557,679.326 3205.971,682.995 3204.638,686.567C3199.011,701.649 3182.198,709.326 3167.116,703.699L3138.378,692.977C3129.958,689.836 3123.456,682.987 3120.755,674.415C3118.054,665.842 3119.456,656.504 3124.556,649.102C3130.021,641.17 3132.847,635.523 3135.885,631.744C3139.594,627.131 3143.633,623.715 3148.391,621.085C3155.282,617.276 3164.751,614.424 3182.231,616.405C3184.162,616.624 3194.665,619.032 3202.294,624.872C3211.69,632.064 3216.784,642.591 3216.181,653.884C3215.923,658.72 3214.635,667.181 3206.476,675.731Z" style="fill:rgb(255,0,0);"/>
        </g>
        <g transform="matrix(1,0,0,1,-157.364237,1722.020355)">
            <path d="M668.909,404.759C631.71,378.336 629.393,376.954 621.868,375.102C606.237,371.254 596.671,355.44 600.518,339.809C604.366,324.178 620.18,314.612 635.811,318.459C644.799,320.672 648.426,320.695 696.206,353.386C713.569,317.339 714.578,305.187 714.992,303.947C720.087,288.677 736.62,280.415 751.89,285.51C766.282,290.312 774.447,305.273 771.075,319.762L770.98,320.254C769.96,325.482 766.31,343.778 744.654,387.075C752.067,392.283 760.043,397.903 768.63,403.969C781.778,413.257 784.911,431.472 775.623,444.62C766.335,457.768 748.12,460.902 734.973,451.614C728.478,447.025 722.394,442.722 716.694,438.685C711.204,448.208 705.153,458.433 698.485,469.405C690.124,483.161 672.168,487.541 658.412,479.181C644.656,470.82 640.275,452.865 648.636,439.108C656.238,426.6 662.962,415.178 668.909,404.759Z" style="fill:rgb(255,0,0);"/>
        </g>
    </g>
</svg>
