<?xml version="1.0" encoding="UTF-8" standalone="no"?>
<!DOCTYPE svg PUBLIC "-//W3C//DTD SVG 1.1//EN" "http://www.w3.org/Graphics/SVG/1.1/DTD/svg11.dtd">
<svg width="100%" height="100%" viewBox="0 0 2897 897" version="1.1" xmlns="http://www.w3.org/2000/svg" xmlns:xlink="http://www.w3.org/1999/xlink" xml:space="preserve" xmlns:serif="http://www.serif.com/" style="fill-rule:evenodd;clip-rule:evenodd;stroke-linejoin:round;stroke-miterlimit:2;">
    <g id="Artboard1" transform="matrix(1,0,0,0.745636,-328,-1273.546135)">
        <rect x="328" y="1708" width="2897" height="1203" style="fill:none;"/>
        <g transform="matrix(1,0,0,1.341137,-276.836676,1598.530262)">
            <path d="M778.729,619.195C779.483,624.313 775.94,629.082 770.821,629.836C765.702,630.59 760.934,627.047 760.179,621.928C758.584,611.104 755.658,598.606 752.68,585.147C751.562,580.095 754.756,575.086 759.808,573.968C764.86,572.85 769.869,576.044 770.987,581.096C774.071,595.035 777.077,607.984 778.729,619.195ZM761.855,525.954C762.22,531.116 758.327,535.602 753.165,535.968C748.004,536.333 743.517,532.439 743.152,527.278C741.194,499.617 744.5,471.911 759.463,448C762.207,443.614 767.997,442.281 772.383,445.026C776.769,447.771 778.102,453.56 775.357,457.946C762.54,478.429 760.178,502.259 761.855,525.954ZM814.165,423.761C809.577,426.152 803.91,424.368 801.519,419.779C799.128,415.191 800.912,409.524 805.501,407.133C824.68,397.14 849.486,389.277 881.388,384.512C886.505,383.747 891.28,387.282 892.045,392.399C892.809,397.516 889.275,402.292 884.158,403.056C854.752,407.448 831.843,414.549 814.165,423.761ZM940.14,398.361C934.968,398.514 930.645,394.44 930.492,389.268C930.339,384.096 934.413,379.773 939.585,379.619C949.557,379.324 960.028,379.248 971.021,379.406C989.135,379.667 1004.696,381.702 1018.162,385.105C1023.178,386.373 1026.222,391.476 1024.954,396.492C1023.686,401.508 1018.583,404.552 1013.567,403.284C1001.338,400.193 987.201,398.391 970.751,398.155C960.047,398.001 949.851,398.074 940.14,398.361ZM1059.695,427.414C1055.905,423.891 1055.687,417.954 1059.21,414.164C1062.732,410.374 1068.669,410.157 1072.459,413.679C1093.14,432.9 1104.305,457.743 1114.444,481.433C1116.48,486.19 1114.271,491.705 1109.514,493.741C1104.757,495.777 1099.242,493.568 1097.206,488.811C1088.054,467.427 1078.363,444.763 1059.695,427.414ZM1126.306,541.411C1122.847,537.562 1123.164,531.63 1127.012,528.171C1130.861,524.713 1136.793,525.029 1140.252,528.878C1150.701,540.505 1165.153,547.65 1187.836,547.339C1192.408,547.276 1197.641,547.206 1203.485,547.131C1208.659,547.064 1212.913,551.211 1212.98,556.385C1213.047,561.558 1208.9,565.813 1203.727,565.88C1197.888,565.955 1192.661,566.025 1188.094,566.087C1158.525,566.493 1139.927,556.568 1126.306,541.411ZM1261.027,565.202C1255.853,565.258 1251.607,561.104 1251.551,555.93C1251.494,550.756 1255.649,546.509 1260.823,546.453C1283.353,546.208 1309.122,545.95 1337.272,545.705C1342.446,545.659 1346.683,549.823 1346.728,554.997C1346.773,560.171 1342.609,564.409 1337.435,564.454C1309.3,564.699 1283.545,564.957 1261.027,565.202ZM1394.743,564C1389.569,564.037 1385.338,559.866 1385.301,554.692C1385.265,549.518 1389.435,545.287 1394.609,545.251C1419.088,545.077 1444.714,544.921 1471.061,544.795C1476.235,544.771 1480.456,548.951 1480.481,554.125C1480.506,559.3 1476.325,563.52 1471.151,563.545C1444.819,563.671 1419.207,563.827 1394.743,564ZM1528.456,563.327C1523.282,563.341 1519.07,559.152 1519.055,553.978C1519.041,548.804 1523.23,544.591 1528.404,544.577C1553.646,544.506 1579.247,544.469 1604.864,544.475C1610.038,544.476 1614.238,548.678 1614.236,553.852C1614.235,559.027 1610.033,563.226 1604.859,563.225C1579.262,563.219 1553.68,563.256 1528.456,563.327ZM1662.157,563.317C1656.983,563.301 1652.795,559.088 1652.811,553.913C1652.826,548.739 1657.04,544.551 1662.214,544.567C1688.076,544.645 1713.688,544.777 1738.69,544.971C1743.864,545.011 1748.032,549.245 1747.992,554.419C1747.952,559.593 1743.718,563.761 1738.544,563.721C1713.571,563.526 1687.989,563.395 1662.157,563.317ZM1795.82,564.297C1790.646,564.232 1786.499,559.978 1786.564,554.805C1786.629,549.631 1790.882,545.483 1796.056,545.548C1822.857,545.885 1848.531,546.312 1872.566,546.844C1877.739,546.959 1881.846,551.251 1881.731,556.424C1881.617,561.597 1877.324,565.704 1872.151,565.59C1848.172,565.059 1822.558,564.633 1795.82,564.297ZM1929.338,567.176C1924.167,566.997 1920.113,562.654 1920.292,557.483C1920.47,552.312 1924.814,548.258 1929.985,548.437C1960.505,549.491 1986.615,550.797 2006.729,552.396C2011.887,552.806 2015.742,557.327 2015.332,562.484C2014.921,567.642 2010.401,571.497 2005.243,571.087C1985.349,569.505 1959.524,568.218 1929.338,567.176ZM2056.95,581.933C2052.437,579.404 2050.826,573.686 2053.355,569.172C2055.884,564.658 2061.603,563.047 2066.116,565.577C2089.531,578.697 2105.356,602.648 2114.482,631.174C2116.059,636.102 2113.338,641.383 2108.41,642.96C2103.482,644.536 2098.201,641.816 2096.624,636.887C2089.034,613.164 2076.423,592.845 2056.95,581.933ZM2105.517,690.766C2105.323,685.595 2109.363,681.24 2114.534,681.045C2119.704,680.851 2124.06,684.891 2124.254,690.062C2125.113,712.925 2122.946,735.7 2118.414,755.52C2117.437,759.793 2116.456,764.023 2115.485,768.208C2114.315,773.248 2109.273,776.39 2104.233,775.22C2099.192,774.05 2096.051,769.008 2097.221,763.967C2098.188,759.803 2099.163,755.593 2100.135,751.341C2104.329,733 2106.312,711.923 2105.517,690.766ZM2085.118,820.555C2085.99,815.455 2090.838,812.022 2095.938,812.893C2101.039,813.765 2104.472,818.613 2103.601,823.713C2098.885,851.311 2097.547,875.039 2106.6,893.008C2108.929,897.629 2107.067,903.271 2102.446,905.599C2097.826,907.927 2092.184,906.066 2089.856,901.445C2079.279,880.453 2079.61,852.796 2085.118,820.555ZM2140.334,939.328C2135.364,937.889 2132.497,932.686 2133.936,927.716C2135.375,922.746 2140.578,919.878 2145.548,921.317C2163.549,926.528 2187.366,928.745 2218.464,927.714C2223.635,927.543 2227.973,931.602 2228.144,936.773C2228.316,941.945 2224.256,946.282 2219.085,946.454C2185.491,947.568 2159.78,944.957 2140.334,939.328ZM2276.873,941.901C2271.726,942.434 2267.115,938.689 2266.581,933.542C2266.048,928.396 2269.793,923.784 2274.94,923.251C2300.176,920.636 2325.846,918.083 2351.243,916.034C2356.401,915.618 2360.926,919.468 2361.342,924.625C2361.758,929.783 2357.908,934.307 2352.751,934.723C2327.494,936.761 2301.968,939.301 2276.873,941.901ZM2409.593,931.145C2404.423,931.36 2400.052,927.337 2399.837,922.167C2399.623,916.997 2403.646,912.626 2408.816,912.411C2435.886,911.289 2461.982,911.187 2486.178,912.676C2491.343,912.994 2495.278,917.444 2494.96,922.609C2494.642,927.773 2490.191,931.708 2485.027,931.391C2461.434,929.939 2435.988,930.051 2409.593,931.145ZM2540.255,938.791C2535.212,937.633 2532.058,932.598 2533.217,927.555C2534.376,922.512 2539.41,919.359 2544.453,920.517C2547.726,921.269 2550.931,922.075 2554.063,922.935C2577.661,929.419 2598.926,933.392 2618.075,935.116C2623.229,935.58 2627.036,940.141 2626.572,945.294C2626.108,950.447 2621.547,954.254 2616.394,953.79C2596.264,951.978 2573.903,947.831 2549.096,941.015C2546.214,940.224 2543.266,939.483 2540.255,938.791ZM2676.103,951.596C2671.022,952.571 2666.104,949.237 2665.129,944.155C2664.154,939.074 2667.488,934.157 2672.57,933.182C2698.849,928.139 2718.837,916.753 2733.774,900.693C2737.298,896.904 2743.235,896.689 2747.024,900.213C2750.812,903.737 2751.027,909.674 2747.504,913.463C2730.055,932.223 2706.802,945.705 2676.103,951.596ZM2778.227,861.104C2776.485,865.976 2771.115,868.518 2766.243,866.777C2761.371,865.035 2758.829,859.665 2760.571,854.793C2768.337,833.065 2772.404,808.425 2774.015,782.476C2774.336,777.312 2778.789,773.38 2783.953,773.7C2789.117,774.021 2793.05,778.474 2792.729,783.638C2791.003,811.441 2786.548,837.824 2778.227,861.104ZM2792.868,725.31C2793.117,730.478 2789.124,734.877 2783.956,735.127C2778.788,735.376 2774.389,731.383 2774.139,726.215C2772.916,700.891 2770.225,675.381 2766.978,650.93C2766.297,645.801 2769.908,641.084 2775.037,640.402C2780.166,639.721 2784.883,643.332 2785.565,648.462C2788.88,673.42 2791.618,699.46 2792.868,725.31ZM2777.013,591.506C2777.843,596.613 2774.37,601.433 2769.263,602.263C2764.156,603.093 2759.336,599.62 2758.506,594.513C2757.936,591.006 2757.37,587.551 2756.812,584.153C2752.877,560.193 2751.718,537.608 2752.978,516.399C2753.285,511.234 2757.728,507.29 2762.893,507.597C2768.058,507.904 2772.002,512.347 2771.695,517.512C2770.512,537.421 2771.62,558.622 2775.314,581.114C2775.874,584.522 2776.442,587.988 2777.013,591.506ZM2781.284,463.393C2779.768,468.34 2774.521,471.125 2769.574,469.609C2764.627,468.092 2761.841,462.845 2763.357,457.898C2771.422,431.586 2783.685,408.023 2799.205,387.21C2802.298,383.062 2808.177,382.206 2812.325,385.299C2816.473,388.392 2817.329,394.271 2814.236,398.419C2799.97,417.549 2788.697,439.207 2781.284,463.393ZM2852.186,358.649C2848.205,361.954 2842.289,361.406 2838.984,357.425C2835.679,353.444 2836.227,347.529 2840.208,344.223C2860.24,327.589 2882.838,313.74 2907.044,302.698C2911.752,300.551 2917.317,302.63 2919.465,307.337C2921.612,312.045 2919.533,317.61 2914.826,319.757C2892.144,330.104 2870.957,343.062 2852.186,358.649ZM2967.278,301.072C2962.278,302.402 2957.139,299.421 2955.81,294.42C2954.48,289.42 2957.461,284.281 2962.462,282.952C2987.676,276.249 3013.729,272.188 3039.729,270.772C3044.895,270.49 3049.318,274.456 3049.599,279.623C3049.881,284.789 3045.915,289.213 3040.748,289.494C3016.026,290.84 2991.253,294.699 2967.278,301.072ZM3096.536,290.769C3091.388,290.243 3087.637,285.637 3088.163,280.49C3088.689,275.342 3093.295,271.59 3098.442,272.117C3125.136,274.845 3151.025,280.492 3175.087,289.039C3179.962,290.771 3182.515,296.136 3180.783,301.011C3179.051,305.887 3173.686,308.439 3168.81,306.707C3146.122,298.648 3121.706,293.342 3096.536,290.769ZM3218.386,330.687C3214.027,327.899 3212.752,322.097 3215.54,317.738C3218.329,313.379 3224.131,312.104 3228.49,314.893C3251.449,329.58 3271.148,347.863 3286.25,369.697C3289.194,373.953 3288.128,379.797 3283.873,382.74C3279.617,385.684 3273.773,384.619 3270.83,380.363C3257.128,360.554 3239.215,344.012 3218.386,330.687ZM3293.454,429.35C3292.046,424.371 3294.945,419.186 3299.924,417.778C3304.903,416.37 3310.088,419.269 3311.496,424.248C3317.26,444.631 3322.338,470.794 3326.707,500.331C3327.465,505.449 3323.924,510.22 3318.805,510.977C3313.687,511.734 3308.916,508.193 3308.159,503.075C3303.926,474.456 3299.038,449.099 3293.454,429.35ZM3315.279,559.576C3314.726,554.431 3318.454,549.806 3323.598,549.253C3328.743,548.7 3333.368,552.428 3333.921,557.572C3336.581,582.322 3338.846,608.161 3340.719,634.025C3341.092,639.185 3337.206,643.679 3332.045,644.052C3326.885,644.426 3322.391,640.54 3322.018,635.379C3320.161,609.735 3317.916,584.116 3315.279,559.576ZM3325.529,692.394C3325.266,687.226 3329.247,682.817 3334.414,682.553C3339.582,682.289 3343.991,686.27 3344.255,691.438C3345.625,718.278 3346.559,744.254 3347.061,768.096C3347.17,773.269 3343.059,777.558 3337.886,777.667C3332.713,777.776 3328.424,773.664 3328.315,768.491C3327.816,744.824 3326.89,719.038 3325.529,692.394ZM3328.635,825.487C3328.706,820.313 3332.963,816.17 3338.137,816.24C3343.31,816.31 3347.454,820.567 3347.384,825.741C3347.178,840.897 3346.702,854.012 3345.965,864.46C3345.601,869.621 3341.115,873.516 3335.954,873.152C3330.792,872.788 3326.898,868.302 3327.262,863.14C3327.979,852.98 3328.435,840.226 3328.635,825.487Z" style="fill:rgb(15,255,0);"/>
        </g>
        <g transform="matrix(1,0,0,1.341137,-108.04049,1871.022629)">
            <path d="M3206.476,675.731C3206.557,679.326 3205.971,682.995 3204.638,686.567C3199.011,701.649 3182.198,709.326 3167.116,703.699L3138.378,692.977C3129.958,689.836 3123.456,682.987 3120.755,674.415C3118.054,665.842 3119.456,656.504 3124.556,649.102C3130.021,641.17 3132.847,635.523 3135.885,631.744C3139.594,627.131 3143.633,623.715 3148.391,621.085C3155.282,617.276 3164.751,614.424 3182.231,616.405C3184.162,616.624 3194.665,619.032 3202.294,624.872C3211.69,632.064 3216.784,642.591 3216.181,653.884C3215.923,658.72 3214.635,667.181 3206.476,675.731Z"/>
        </g>
        <g transform="matrix(1,0,0,1.341137,-215.492269,1891.021101)">
            <path d="M668.909,404.759C631.71,378.336 629.393,376.954 621.868,375.102C606.237,371.254 596.671,355.44 600.518,339.809C604.366,324.178 620.18,314.612 635.811,318.459C644.799,320.672 648.426,320.695 696.206,353.386C713.569,317.339 714.578,305.187 714.992,303.947C720.087,288.677 736.62,280.415 751.89,285.51C766.282,290.312 774.447,305.273 771.075,319.762L770.98,320.254C769.96,325.482 766.31,343.778 744.654,387.075C752.067,392.283 760.043,397.903 768.63,403.969C781.778,413.257 784.911,431.472 775.623,444.62C766.335,457.768 748.12,460.902 734.973,451.614C728.478,447.025 722.394,442.722 716.694,438.685C711.204,448.208 705.153,458.433 698.485,469.405C690.124,483.161 672.168,487.541 658.412,479.181C644.656,470.82 640.275,452.865 648.636,439.108C656.238,426.6 662.962,415.178 668.909,404.759Z"/>
        </g>
        <g transform="matrix(1,0,0,1.341137,-418.990186,-1731.488303)">
            <path d="M1368.03,2910.517C1368.03,2944.067 1363.681,2949.037 1327.024,2948.416L1291.61,2948.416L1291.61,2995.635L1532.053,2995.635L1532.053,2948.416L1496.018,2948.416C1459.361,2949.037 1454.391,2944.067 1455.012,2910.517L1455.012,2627.203C1530.811,2625.961 1557.527,2658.268 1559.39,2752.706L1606.609,2752.706L1606.609,2581.227L1217.054,2581.227L1217.054,2752.706L1264.273,2752.706C1266.137,2658.268 1293.474,2625.34 1368.03,2627.203L1368.03,2910.517Z" style="fill:white;fill-rule:nonzero;"/>
            <path d="M1632.005,2995.635L1787.967,2995.635L1787.967,2962.433L1767.434,2962.433C1741.659,2962.87 1738.601,2959.375 1738.601,2935.784L1738.601,2863.701L1864.855,2863.701L1864.855,2935.784C1864.855,2959.375 1861.797,2962.87 1836.022,2962.433L1815.489,2962.433L1815.489,2995.635L1971.451,2995.635L1971.451,2962.433L1954.413,2962.433C1929.075,2962.87 1926.017,2959.375 1926.017,2935.784L1926.017,2764.532C1926.017,2740.505 1929.075,2737.01 1954.413,2737.447L1971.451,2737.447L1971.451,2704.245L1815.489,2704.245L1815.489,2737.447L1836.022,2737.447C1861.797,2737.01 1865.292,2740.505 1864.855,2764.532L1864.855,2828.752L1738.601,2828.752L1738.601,2764.532C1738.164,2740.505 1741.659,2737.01 1767.434,2737.447L1787.967,2737.447L1787.967,2704.245L1632.005,2704.245L1632.005,2737.447L1649.043,2737.447C1674.381,2737.01 1677.439,2740.505 1677.439,2764.532L1677.439,2935.784C1677.439,2959.375 1674.381,2962.87 1649.043,2962.433L1632.005,2962.433L1632.005,2995.635Z" style="fill:white;fill-rule:nonzero;"/>
            <path d="M1992.42,2995.635L2278.568,2995.635L2278.568,2872.002L2245.366,2872.002C2239.25,2946.706 2226.581,2962.87 2175.467,2962.433L2099.016,2962.433L2099.016,2860.206L2116.054,2860.206C2152.314,2859.332 2158.43,2867.196 2161.925,2919.62L2195.126,2919.62L2195.126,2774.143L2161.925,2774.143C2157.556,2821.762 2154.061,2826.131 2115.617,2827.004L2099.016,2827.004L2099.016,2737.447L2168.914,2737.447C2228.765,2736.573 2243.182,2751.863 2245.366,2820.014L2278.568,2820.014L2278.568,2704.245L1992.42,2704.245L1992.42,2737.447L2009.458,2737.447C2034.796,2737.01 2037.854,2740.505 2037.854,2764.532L2037.854,2935.347C2037.854,2959.375 2034.796,2962.87 2009.458,2962.433L1992.42,2962.433L1992.42,2995.635Z" style="fill:white;fill-rule:nonzero;"/>
        </g>
        <g transform="matrix(1,0,0,1.341137,-943.149223,-1631.584266)">
            <path d="M1513.948,2920.853L1543.149,2920.853C1579.184,2920.231 1583.533,2925.202 1583.533,2958.752L1583.533,3168.13C1583.533,3204.787 1581.048,3219.077 1571.729,3231.503C1561.788,3245.172 1543.77,3252.627 1521.403,3252.627C1499.658,3252.627 1489.717,3248.899 1470.457,3234.61C1499.658,3225.911 1512.084,3211 1512.084,3184.905C1512.084,3155.083 1492.202,3135.201 1462.38,3135.201C1426.344,3135.201 1403.977,3158.811 1403.977,3196.089C1403.977,3257.598 1458.03,3300.467 1535.072,3300.467C1579.184,3300.467 1617.083,3287.42 1641.314,3263.811C1664.924,3240.823 1672.379,3215.349 1672.379,3155.704L1672.379,2958.752C1672.379,2925.202 1676.728,2920.231 1712.764,2920.853L1731.403,2920.853L1731.403,2873.634L1513.948,2873.634L1513.948,2920.853Z" style="fill:white;fill-rule:nonzero;"/>
            <path d="M1755.051,3029.853L1769.031,3029.853C1794.806,3029.416 1798.301,3032.911 1797.864,3056.502L1797.864,3195.863C1797.864,3232.559 1807.039,3255.276 1828.445,3271.877C1849.415,3288.478 1877.811,3296.779 1911.45,3296.779C1948.583,3296.779 1980.911,3286.294 2000.134,3267.946C2017.171,3252.218 2026.346,3226.88 2026.346,3195.863L2026.346,3056.502C2026.346,3032.911 2029.404,3029.416 2055.179,3029.853L2068.285,3029.853L2068.285,2996.651L1933.293,2996.651L1933.293,3029.853L1950.331,3029.853C1976.106,3029.416 1979.601,3032.911 1979.164,3056.502L1979.164,3195.863C1979.164,3218.143 1975.232,3229.501 1965.184,3238.239C1953.389,3248.287 1935.914,3253.966 1917.129,3253.966C1899.217,3253.966 1883.053,3248.723 1872.569,3239.549C1862.521,3230.812 1859.026,3220.327 1859.026,3195.863L1859.026,3056.502C1859.026,3032.911 1862.084,3029.416 1887.422,3029.853L1906.207,3029.853L1906.207,2996.651L1755.051,2996.651L1755.051,3029.853Z" style="fill:white;fill-rule:nonzero;"/>
            <path d="M2383.266,3288.041L2383.266,3056.502C2382.829,3032.911 2386.324,3029.416 2412.099,3029.853L2426.079,3029.853L2426.079,2996.651L2288.466,2996.651L2288.466,3029.853L2308.561,3029.853C2334.337,3029.416 2337.832,3032.911 2337.395,3056.502L2337.395,3208.095L2208.519,2996.651L2084.449,2996.651L2084.449,3029.853L2102.797,3029.853C2128.572,3029.416 2132.067,3032.911 2131.63,3056.502L2131.63,3228.191C2132.067,3251.781 2128.572,3255.276 2102.797,3254.84L2082.701,3254.84L2082.701,3288.041L2225.994,3288.041L2225.994,3254.84L2206.335,3254.84C2180.56,3255.276 2177.501,3251.781 2177.501,3228.191L2177.501,3050.823L2321.667,3288.041L2383.266,3288.041Z" style="fill:white;fill-rule:nonzero;"/>
            <path d="M2688.743,3289.789L2720.634,3289.789L2720.634,3192.368C2721.071,3168.34 2723.255,3165.719 2744.225,3165.282L2762.573,3165.282L2762.573,3132.08L2608.796,3132.08L2608.796,3165.282L2627.144,3165.282C2657.288,3164.845 2660.783,3167.029 2660.346,3189.31L2660.346,3205.474C2660.346,3222.948 2656.851,3231.686 2646.366,3240.86C2633.26,3251.781 2614.912,3257.898 2595.253,3257.898C2539.771,3257.898 2507.443,3215.522 2507.443,3142.565C2507.443,3069.608 2540.208,3023.3 2592.195,3023.3C2615.349,3023.3 2636.319,3032.474 2652.483,3050.386C2666.025,3064.803 2672.142,3077.909 2679.568,3108.489L2712.77,3108.489L2712.77,2994.904L2682.19,2994.904L2670.394,3019.805C2637.192,2994.467 2620.154,2987.914 2584.331,2987.914C2501.764,2987.914 2439.292,3054.318 2439.292,3142.128C2439.292,3230.812 2500.89,3296.342 2584.331,3296.342C2620.154,3296.342 2637.629,3290.226 2673.452,3265.324L2688.743,3289.789Z" style="fill:white;fill-rule:nonzero;"/>
            <path d="M2777.863,2996.651L2777.863,3029.853L2794.901,3029.853C2820.239,3029.416 2823.297,3032.911 2823.297,3056.502L2823.297,3228.191C2823.297,3251.781 2820.239,3255.276 2794.901,3254.84L2777.863,3254.84L2777.863,3288.041L3048.284,3288.041L3048.284,3162.224L3015.082,3162.224C3014.645,3238.675 3000.665,3255.713 2938.63,3254.84L2884.459,3254.84L2884.459,3056.502C2884.022,3032.911 2887.517,3029.416 2913.292,3029.853L2933.825,3029.853L2933.825,2996.651L2777.863,2996.651Z" style="fill:white;fill-rule:nonzero;"/>
            <path d="M3079.301,3288.041L3365.449,3288.041L3365.449,3164.408L3332.247,3164.408C3326.131,3239.112 3313.462,3255.276 3262.348,3254.84L3185.897,3254.84L3185.897,3152.613L3202.935,3152.613C3239.195,3151.739 3245.311,3159.603 3248.806,3212.027L3282.007,3212.027L3282.007,3066.55L3248.806,3066.55C3244.437,3114.168 3240.942,3118.537 3202.498,3119.411L3185.897,3119.411L3185.897,3029.853L3255.795,3029.853C3315.646,3028.979 3330.063,3044.27 3332.247,3112.421L3365.449,3112.421L3365.449,2996.651L3079.301,2996.651L3079.301,3029.853L3096.339,3029.853C3121.677,3029.416 3124.735,3032.911 3124.735,3056.939L3124.735,3227.754C3124.735,3251.781 3121.677,3255.276 3096.339,3254.84L3079.301,3254.84L3079.301,3288.041Z" style="fill:white;fill-rule:nonzero;"/>
        </g>
        <g transform="matrix(1,0,0,1.341137,1197.452801,-2046.500033)">
            <path d="M1412.118,3597.418L1638.272,3597.418C1717.177,3597.418 1755.698,3589.341 1784.277,3567.595C1807.266,3549.577 1819.692,3520.998 1819.692,3485.583C1819.692,3452.033 1808.508,3425.317 1786.763,3407.299C1770.609,3393.631 1755.698,3386.797 1720.284,3378.098C1781.792,3360.081 1803.538,3335.85 1803.538,3284.903C1803.538,3216.56 1753.212,3183.01 1650.077,3183.01L1412.118,3183.01L1412.118,3230.229L1436.349,3230.229C1472.384,3230.229 1476.734,3234.578 1476.734,3268.749L1476.734,3512.299C1476.734,3545.85 1472.384,3550.82 1436.349,3550.199L1412.118,3550.199L1412.118,3597.418ZM1563.716,3550.82L1563.716,3406.678L1626.467,3406.678C1670.579,3406.678 1690.461,3411.027 1707.236,3424.075C1721.526,3435.258 1729.603,3454.518 1729.603,3478.128C1729.603,3501.737 1721.526,3522.861 1707.857,3534.045C1693.568,3545.85 1670.579,3550.82 1632.059,3550.82L1563.716,3550.82ZM1563.716,3359.459L1563.716,3230.85L1629.574,3230.85C1664.988,3230.85 1683.627,3235.199 1697.295,3245.761C1709.721,3255.702 1716.556,3273.099 1716.556,3294.844C1716.556,3314.104 1710.964,3329.637 1699.159,3340.199C1684.248,3355.11 1666.23,3359.459 1622.739,3359.459L1563.716,3359.459Z" style="fill:white;fill-rule:nonzero;"/>
        </g>
    </g>
</svg>
