<?xml version="1.0" encoding="utf-8"?>
<!-- Generator: Adobe Illustrator 28.3.0, SVG Export Plug-In . SVG Version: 6.00 Build 0)  -->
<svg version="1.1" id="Layer_1" xmlns="http://www.w3.org/2000/svg" xmlns:xlink="http://www.w3.org/1999/xlink" x="0px" y="0px"
	 viewBox="0 0 277.7 98.6" style="enable-background:new 0 0 277.7 98.6;" xml:space="preserve">
<style type="text/css">
	.st0{fill:#FFFFFF;}
	.st1{fill:#FFF100;}
	.st2{fill:#231F20;}
</style>
<g>
	<path class="st0" d="M33.8,42.3C33,43.7,32,45,30.7,46c-1.3,1-2.9,1.8-4.7,2.3c-1.8,0.5-3.8,0.7-6,0.7c-1.9,0-3.5-0.1-4.8-0.3
		c-1.3-0.2-2.4-0.5-3.3-0.8c-0.9-0.3-1.5-0.6-2-0.9c-0.4-0.3-0.7-0.4-0.8-0.4s-0.4,0.2-0.7,0.7c-0.4,0.5-0.7,0.9-1,1.3H6.8L6.6,37.2
		h0.6c0.3,1,0.8,2,1.3,3c0.5,1,1.1,1.9,1.7,2.7c0.6,0.9,1.3,1.6,2,2.3c0.7,0.6,1.4,1.1,2,1.5c0.6,0.3,1.5,0.7,2.6,1
		c1.1,0.3,2.1,0.5,3.1,0.5c2.8,0,5.1-0.8,6.9-2.3c1.8-1.5,2.6-3.6,2.6-6.3c0-1.1-0.2-2-0.5-2.8c-0.3-0.8-0.8-1.5-1.4-2.1
		c-0.6-0.6-1.3-1.1-2.1-1.5c-0.8-0.4-1.7-0.8-2.6-1.1c-0.9-0.3-1.7-0.6-2.4-0.9s-1.3-0.4-1.9-0.7c-0.6-0.2-1.2-0.4-1.8-0.6
		c-0.6-0.2-1.4-0.5-2.3-0.8c-1-0.4-1.9-0.9-2.9-1.6c-0.9-0.7-1.7-1.4-2.4-2.3c-0.7-0.9-1.2-1.9-1.7-3c-0.4-1.1-0.6-2.2-0.6-3.5
		c0-2.1,0.4-3.8,1.1-5.3c0.8-1.5,1.8-2.7,3-3.7s2.7-1.7,4.4-2.2c1.7-0.5,3.4-0.7,5.2-0.7c1.7,0,3.2,0.1,4.4,0.4
		c1.2,0.3,2.2,0.6,3,0.9c0.8,0.3,1.4,0.7,1.8,0.9c0.4,0.3,0.6,0.4,0.7,0.4c0.1,0,0.4-0.2,0.7-0.7c0.4-0.5,0.7-0.9,1-1.4h0.6v10.6
		h-0.6c-0.5-1.3-1-2.5-1.8-3.7c-0.7-1.2-1.6-2.3-2.5-3.3c-1-1-2-1.8-3.3-2.4c-1.2-0.6-2.6-0.9-4.1-0.9c-1.2,0-2.3,0.2-3.3,0.5
		c-1,0.3-2,0.9-2.7,1.5c-0.8,0.7-1.4,1.5-1.8,2.5c-0.4,1-0.7,2.2-0.7,3.5c0,2,0.6,3.6,1.8,4.9s2.8,2.2,4.7,2.9
		c0.8,0.3,1.5,0.6,2.1,0.8c0.7,0.2,1.3,0.4,2,0.7c0.6,0.2,1.3,0.4,2,0.7s1.4,0.5,2.1,0.7c2.6,1,4.6,2.3,6,4.1
		c1.4,1.8,2.1,4.1,2.1,6.8C34.9,39.2,34.5,40.8,33.8,42.3z"/>
	<path class="st0" d="M61.3,42.8c-0.5,1-1.3,2-2.2,2.9c-0.9,0.9-2,1.6-3.3,2.2c-1.3,0.6-2.7,0.9-4.3,0.9c-1.9,0-3.7-0.4-5.3-1.1
		c-1.6-0.7-3-1.7-4.1-3.1c-1.1-1.3-2-2.9-2.6-4.6c-0.6-1.8-0.9-3.6-0.9-5.6c0-1.6,0.3-3.2,0.9-4.8c0.6-1.6,1.4-3,2.4-4.3
		c1-1.3,2.3-2.3,3.8-3.1c1.5-0.8,3.2-1.2,5-1.2c1.5,0,2.9,0.2,4.2,0.6c1.3,0.4,2.5,1,3.4,1.7c1,0.8,1.8,1.8,2.4,2.9
		c0.6,1.2,1,2.6,1.1,4.2H43.5c0,0.3,0,0.7-0.1,1.1c0,0.4-0.1,0.8-0.1,1.2c0,1.6,0.2,3.1,0.7,4.6c0.5,1.5,1.1,2.8,2,3.9
		c0.9,1.1,2,2,3.3,2.7c1.3,0.6,2.9,1,4.6,1c1.9,0,3.6-0.5,5-1.5s2.4-2.2,2.8-3.6l0.5,0.1C62.2,40.8,61.8,41.7,61.3,42.8z M54.7,23.5
		c-1-1-2.3-1.5-3.9-1.5c-1.1,0-2,0.3-2.9,0.9c-0.9,0.6-1.6,1.4-2.2,2.2c-0.6,0.8-1.1,1.7-1.5,2.5c-0.3,0.9-0.6,1.5-0.6,2
		c0.9,0,1.7,0,2.3,0c0.7,0,1.4,0,2,0c0.7,0,1.4,0,2.1-0.1c0.7,0,1.5,0,2.4,0c0.6,0,1.1,0,1.6-0.1s0.9-0.1,1.3-0.3
		c0.3-0.3,0.5-0.6,0.6-0.9c0.1-0.3,0.2-0.7,0.2-1.2C56.2,25.7,55.7,24.5,54.7,23.5z"/>
	<path class="st0" d="M88.5,45.1c-0.3,0.7-0.7,1.3-1.2,1.9c-0.5,0.6-1.1,1-1.7,1.3c-0.7,0.3-1.4,0.4-2.2,0.4c-1.3,0-2.4-0.4-3.5-1.1
		c-1-0.8-1.5-2.1-1.5-4l-0.1-0.1c-0.3,0.5-0.7,1-1.2,1.7c-0.5,0.6-1.1,1.2-1.8,1.7c-0.7,0.5-1.5,1-2.3,1.3C72,48.5,71,48.6,70,48.6
		c-0.6,0-1.2-0.1-1.9-0.3s-1.2-0.5-1.7-0.9s-0.9-1-1.3-1.7c-0.3-0.7-0.5-1.5-0.5-2.5c0-1.1,0.4-2.1,1.3-3.1c0.9-1,1.9-1.9,3.2-2.7
		c1.3-0.8,2.4-1.5,3.3-2.1c1-0.6,1.8-1.1,2.5-1.5c0.7-0.4,1.4-0.7,1.9-1c0.6-0.3,1-0.5,1.4-0.8v-5.9c0-0.1-0.1-0.3-0.2-0.5
		c-0.1-0.3-0.4-0.6-0.7-0.9c-0.3-0.3-0.8-0.6-1.3-0.8s-1.3-0.4-2.2-0.4c-0.6,0-1.2,0.1-1.8,0.3c-0.6,0.2-1.1,0.5-1.6,0.8
		s-0.8,0.6-1.1,1c-0.3,0.3-0.4,0.6-0.4,0.8v2.6c0,0.5-0.3,1-0.8,1.4c-0.6,0.4-1.2,0.6-1.8,0.6c-0.6,0-1.1-0.2-1.6-0.7
		c-0.4-0.4-0.7-0.9-0.7-1.5c0-0.5,0.1-0.9,0.3-1.3c0.2-0.4,0.5-0.7,0.9-1c0.3-0.3,0.7-0.6,1.1-0.8c0.4-0.2,0.8-0.4,1.1-0.6
		c1-0.6,2-1.1,3-1.7c1-0.5,2-1,2.9-1.4c0.9-0.4,1.8-0.7,2.6-0.9c0.8-0.2,1.4-0.3,1.9-0.3c1,0,1.9,0.3,2.8,0.8
		c0.9,0.5,1.5,1.2,1.9,1.9c0.2,0.3,0.2,0.7,0.3,1.4c0,0.7,0.1,1.3,0.1,2c0,1.4,0,2.6,0,3.7c0,1.1,0,2.2,0,3.2s0,2.1,0,3.2
		c0,1.1,0,2.3,0,3.6c0,1.7,0.3,2.8,0.9,3.4c0.6,0.6,1.3,0.8,2,0.8c0.9,0,1.5-0.2,1.9-0.5c0.4-0.4,0.7-0.8,0.9-1.4H89
		C88.9,43.7,88.8,44.4,88.5,45.1z M78.3,33.1c-0.7,0.5-1.5,1-2.6,1.6c-1,0.6-2,1.2-3,1.8c-1,0.6-1.8,1.4-2.5,2.1
		c-0.7,0.8-1.1,1.7-1.1,2.7s0.3,1.9,1,2.7c0.7,0.8,1.6,1.2,2.7,1.2c1,0,1.9-0.1,2.6-0.3c0.8-0.2,1.5-0.7,2.1-1.3
		c0.5-0.4,0.7-1,0.7-1.6V33.1z"/>
	<path class="st0" d="M108.2,26.2c-0.5,0.6-1.1,0.8-1.7,0.8c-0.6,0-1.1-0.1-1.5-0.3c-0.4-0.2-0.7-0.4-0.9-0.7
		c-0.3-0.3-0.6-0.5-0.9-0.7c-0.3-0.2-0.7-0.3-1.3-0.3c-0.5,0-0.9,0.2-1.3,0.5c-0.4,0.3-0.8,0.7-1.2,1.2c-0.4,0.5-0.7,1.1-1,1.7
		c-0.3,0.6-0.6,1.2-0.8,1.8v16.4c0.1,0.3,0.4,0.6,0.7,0.8c0.4,0.2,0.8,0.3,1.3,0.4c0.5,0.1,1,0.1,1.5,0.1c0.5,0,1,0.1,1.3,0.1v0.6
		H89.7V48c0.9-0.1,1.6-0.2,2.3-0.5c0.6-0.3,0.9-0.7,0.9-1.3V26.9c0-0.3,0-0.5-0.1-0.7c-0.1-0.2-0.2-0.3-0.5-0.5
		c-0.3-0.2-0.7-0.4-1.2-0.7c-0.5-0.3-0.9-0.5-1.4-0.7V24l7.5-2.9h0.3L97.4,29h0.1c0.2-0.5,0.5-1.1,0.9-2c0.4-0.9,1-1.8,1.6-2.7
		c0.6-0.9,1.4-1.7,2.3-2.3c0.9-0.6,2-1,3.1-1c1,0,1.8,0.3,2.4,0.9c0.7,0.6,1,1.3,1,2.2C108.9,24.9,108.7,25.6,108.2,26.2z"/>
	<path class="st0" d="M132,43.7c-0.7,1-1.5,1.9-2.5,2.7c-1,0.8-2.1,1.4-3.3,1.8c-1.2,0.4-2.6,0.6-4,0.6c-1.8,0-3.5-0.4-5.1-1.1
		c-1.6-0.7-2.9-1.7-4-3c-1.1-1.3-2-2.8-2.6-4.5s-0.9-3.5-0.9-5.5c0-1.8,0.3-3.6,1-5.2c0.6-1.7,1.5-3.1,2.7-4.4
		c1.1-1.3,2.5-2.3,4.1-3c1.6-0.8,3.3-1.1,5.2-1.1c1.3,0,2.5,0.2,3.7,0.5c1.2,0.3,2.3,0.7,3.3,1.3c1,0.6,1.7,1.3,2.3,2.1
		c0.6,0.8,0.9,1.8,0.9,2.9c0,0.8-0.3,1.5-0.9,2.1c-0.6,0.6-1.3,0.9-2.1,0.9c-0.6,0-1.2-0.2-1.7-0.6s-0.8-0.9-1-1.4
		c0.2-0.5,0.3-1.2,0.3-1.9c0-1.4-0.4-2.6-1.1-3.5s-1.9-1.4-3.5-1.4c-1.2,0-2.3,0.3-3.3,0.9c-1,0.6-1.8,1.4-2.6,2.5
		c-0.7,1-1.3,2.2-1.7,3.6c-0.4,1.4-0.6,2.8-0.6,4.4c0,1.7,0.2,3.3,0.7,4.7c0.5,1.4,1.1,2.6,1.9,3.7c0.8,1,1.9,1.8,3.1,2.3
		c1.2,0.6,2.5,0.8,4,0.8c2.4,0,4.2-0.4,5.6-1.2c1.4-0.8,2.5-1.9,3.4-3.5l0.5,0.2C133.2,41.6,132.7,42.7,132,43.7z"/>
	<path class="st0" d="M150.6,48.6V48c1-0.1,1.9-0.2,2.6-0.4s1-0.6,1-1.2V32.2c0-1.1-0.1-2.1-0.2-3.1c-0.2-1-0.4-1.8-0.8-2.5
		c-0.4-0.7-0.9-1.2-1.6-1.6c-0.7-0.4-1.6-0.6-2.6-0.6c-1.4,0-2.5,0.2-3.5,0.7c-1,0.5-1.7,1.2-2.3,2c-0.1,0.1-0.2,0.4-0.3,0.7
		c-0.1,0.4-0.2,0.7-0.2,1v17.5c0,0.3,0.1,0.6,0.3,0.8s0.4,0.3,0.7,0.4c0.3,0.1,0.6,0.2,1,0.2c0.4,0,0.8,0.1,1.1,0.2v0.6h-11.4V48
		c0.9-0.1,1.7-0.2,2.4-0.4c0.7-0.2,1.1-0.7,1.1-1.4V13.8c0-0.3,0-0.5-0.1-0.7c-0.1-0.2-0.2-0.3-0.5-0.5c-0.3-0.3-0.7-0.5-1.2-0.8
		c-0.5-0.2-1-0.5-1.5-0.8v-0.3l7.6-3.5h0.5L142.5,27l0.1,0.1c0.3-0.5,0.7-1.1,1.2-1.8c0.5-0.7,1.2-1.3,2.1-1.9
		c0.8-0.6,1.8-1.1,2.9-1.6s2.3-0.7,3.6-0.7c1.2,0,2.3,0.2,3.2,0.7c0.9,0.4,1.5,1,2,1.8c0.5,0.8,0.9,1.7,1.1,2.8s0.3,2.2,0.3,3.5
		v16.8c0,0.3,0.1,0.5,0.3,0.7c0.2,0.2,0.5,0.3,0.9,0.4c0.3,0.1,0.7,0.2,1.1,0.2c0.4,0.1,0.7,0.1,1.1,0.1v0.5H150.6z"/>
	<path class="st0" d="M164,48.6V48c0.5,0,0.9-0.1,1.4-0.1c0.5-0.1,0.9-0.2,1.2-0.3c0.4-0.1,0.7-0.3,0.9-0.5c0.2-0.2,0.4-0.5,0.4-0.9
		V26.6c0-0.3,0-0.6-0.1-0.8c-0.1-0.2-0.2-0.4-0.5-0.6c-0.3-0.2-0.8-0.5-1.2-0.7c-0.5-0.2-1-0.4-1.5-0.6v-0.3l7.7-2.5h0.3v25.5
		c0.1,0.4,0.2,0.7,0.5,0.8c0.2,0.2,0.5,0.3,0.9,0.4c0.3,0.1,0.7,0.1,1.1,0.1c0.4,0,0.8,0.1,1.2,0.1v0.6H164z M172.2,14.2
		c-0.6,0.6-1.3,0.9-2.2,0.9c-0.8,0-1.6-0.3-2.2-0.9c-0.6-0.6-0.9-1.3-0.9-2.2c0-0.9,0.3-1.6,0.9-2.2c0.6-0.6,1.3-0.9,2.2-0.9
		s1.6,0.3,2.2,0.9c0.6,0.6,0.9,1.3,0.9,2.2C173.1,12.9,172.8,13.6,172.2,14.2z"/>
	<path class="st0" d="M195,48.6V48c1-0.1,1.8-0.2,2.5-0.4c0.6-0.2,0.9-0.6,0.9-1.2V32.1c0-2.2-0.4-4-1.3-5.3c-0.8-1.4-2.2-2-4.2-2
		c-1.3,0-2.3,0.3-3.1,0.8c-0.8,0.5-1.8,1.3-2.8,2.3v18.7c0.1,0.4,0.2,0.7,0.4,0.8c0.2,0.2,0.4,0.3,0.7,0.4c0.3,0.1,0.6,0.1,0.9,0.1
		c0.3,0,0.7,0.1,1.1,0.1v0.6h-11V48c0.9-0.1,1.6-0.2,2.3-0.5c0.6-0.3,0.9-0.7,0.9-1.3V26.6c0-0.3,0-0.5-0.1-0.7
		c-0.1-0.2-0.2-0.3-0.5-0.5c-0.3-0.2-0.7-0.4-1.2-0.7c-0.5-0.2-0.9-0.5-1.4-0.7v-0.3l7.5-2.7h0.3v6.2l0.1,0.1
		c0.4-0.6,0.9-1.3,1.6-2.1s1.3-1.4,2.1-2c0.8-0.6,1.7-1.1,2.6-1.5c0.9-0.4,1.9-0.6,3-0.6c2.2,0,3.9,0.8,5.1,2.5
		c1.2,1.6,1.8,3.7,1.8,6.3v16.8c0,0.3,0.1,0.5,0.4,0.7c0.2,0.2,0.5,0.3,0.9,0.4c0.3,0.1,0.7,0.2,1.1,0.2c0.4,0.1,0.8,0.1,1.1,0.1
		v0.5H195z"/>
	<path class="st0" d="M237.1,25.7c-0.4,0.4-0.9,0.7-1.5,0.7c-0.2,0-0.6-0.1-1-0.3c-0.5-0.2-1-0.4-1.5-0.7c-0.6-0.3-1.1-0.6-1.7-0.9
		c-0.6-0.3-1.1-0.6-1.5-0.9l-0.2,0.2c0.6,0.9,1.1,1.7,1.5,2.5c0.4,0.8,0.6,1.8,0.6,3c0,3-1,5.3-3.1,6.8c-2.1,1.5-5,2.3-8.7,2.3
		c-0.5,0-1.1,0-1.6-0.1s-1.2-0.1-2-0.1c-1.2,0.1-2.2,0.4-2.9,0.9c-0.7,0.5-1.1,1.1-1.1,1.9c0,0.6,0.2,1.1,0.6,1.5
		c0.4,0.4,0.9,0.7,1.4,0.9c0.6,0.2,1.2,0.4,1.9,0.5c0.7,0.1,1.4,0.1,2,0.1h9.1c1.3,0,2.5,0.2,3.6,0.6c1.1,0.4,2,1,2.7,1.7
		c0.8,0.7,1.3,1.6,1.7,2.5c0.4,0.9,0.6,2,0.6,3.1c0,1.5-0.4,2.9-1.1,4.3c-0.7,1.4-1.8,2.5-3.1,3.6c-1.3,1-2.9,1.8-4.7,2.4
		c-1.8,0.6-3.8,0.9-6,0.9c-4.1,0-7.4-0.6-9.7-1.9c-2.3-1.2-3.5-2.9-3.5-5.1c0-0.8,0.2-1.5,0.7-2.2c0.4-0.6,1-1.3,1.7-1.9
		c0.7-0.6,1.4-1.1,2.2-1.7c0.8-0.5,1.6-1,2.4-1.5v-0.1c-1.9-0.2-3.4-0.8-4.5-1.7c-1-0.9-1.6-2-1.6-3.5c0-0.7,0.2-1.4,0.5-2.1
		c0.3-0.6,0.8-1.2,1.4-1.8c0.6-0.5,1.3-1,2.1-1.3c0.8-0.4,1.7-0.6,2.7-0.7v-0.2c-1.7-0.6-3-1.6-3.9-2.9c-0.9-1.3-1.4-2.9-1.4-4.8
		c0-1.2,0.3-2.4,0.8-3.4c0.6-1.1,1.3-2,2.3-2.8s2.2-1.4,3.5-1.9c1.4-0.5,2.8-0.7,4.4-0.7c1.4,0,2.7,0.1,3.9,0.4
		c1.1,0.3,2.3,0.7,3.5,1.4c0.5,0.2,0.8,0.2,1.2,0.3c0.3,0,0.7,0.1,1.2,0.1s0.9-0.1,1.2-0.2c0.4-0.1,0.7-0.3,1-0.5
		c0.3-0.2,0.6-0.3,1-0.5c0.3-0.1,0.7-0.2,1.2-0.2c0.6,0,1.2,0.2,1.6,0.7c0.4,0.5,0.6,1,0.6,1.7C237.7,24.8,237.5,25.3,237.1,25.7z
		 M231.5,51.2c-0.5-0.8-1-1.4-1.7-1.7c-0.8-0.4-1.9-0.7-3.1-0.9c-1.3-0.2-3-0.3-5.2-0.3c-0.8,0-1.6,0-2.5,0.1
		c-0.8,0.1-1.5,0.2-2.1,0.2c-1.8,0.5-3,1.2-3.7,2.2c-0.7,1-1,2.1-1,3.3c0,1.2,0.3,2.3,1,3.2c0.7,0.9,1.5,1.7,2.5,2.3
		c1,0.6,2,1.1,3.2,1.4c1.1,0.3,2.2,0.5,3.1,0.5c1.1,0,2.1-0.1,2.9-0.2s1.6-0.3,2.2-0.5c1.3-0.5,2.5-1.4,3.5-2.6s1.5-2.6,1.5-4.2
		C232.2,53,232,52,231.5,51.2z M226.8,26.5c-0.3-0.9-0.7-1.6-1.2-2.3c-0.5-0.7-1.2-1.2-1.9-1.6c-0.8-0.4-1.7-0.6-2.7-0.6
		c-1,0-1.8,0.2-2.6,0.7c-0.8,0.4-1.4,1-1.9,1.8s-0.9,1.6-1.2,2.5c-0.3,1-0.4,1.9-0.4,2.9c0,2.3,0.6,4.1,1.7,5.5
		c1.2,1.4,2.6,2.1,4.3,2.1c1,0,1.9-0.2,2.7-0.7s1.4-1.1,2-1.8c0.5-0.8,0.9-1.6,1.2-2.6c0.3-1,0.4-2,0.4-3.1
		C227.2,28.3,227,27.3,226.8,26.5z"/>
</g>
<g>
	<path class="st0" d="M111.9,46.7c-0.2,0.3-0.5,0.5-0.9,0.5c-0.4,0-0.7-0.1-0.9-0.3s-0.5-0.4-0.7-0.7s-0.4-0.5-0.6-0.8
		c-0.2-0.2-0.4-0.4-0.7-0.5c-0.1,0-0.3,0-0.5,0.1s-0.5,0.2-0.7,0.4c-0.2,0.2-0.4,0.5-0.6,0.9c-0.2,0.4-0.3,0.9-0.3,1.5
		c0,0.8-0.1,1.5-0.1,2.1c0,0.6,0,1.2,0,2h3.6l-0.4,1.4h-3.3v12c0,0.2,0.1,0.3,0.3,0.4c0.2,0.1,0.4,0.2,0.6,0.2s0.5,0.1,0.8,0.1
		c0.3,0,0.6,0.1,0.9,0.1v0.3h-7.8v-0.3c0.2,0,0.5-0.1,0.8-0.1c0.3-0.1,0.6-0.1,0.9-0.2c0.3-0.1,0.5-0.2,0.7-0.3
		c0.2-0.1,0.3-0.2,0.3-0.4V53.2H101l0.3-1.4h1.9c0-0.9,0-1.7,0.1-2.5c0.1-0.8,0.2-1.5,0.4-1.9c0.2-0.5,0.5-0.9,1-1.3
		c0.4-0.4,0.9-0.7,1.4-1c0.5-0.3,1.1-0.5,1.7-0.7c0.6-0.2,1.3-0.3,1.9-0.3c0.3,0,0.6,0,0.9,0.1c0.3,0.1,0.6,0.2,0.8,0.3
		c0.2,0.1,0.4,0.3,0.6,0.5c0.2,0.2,0.2,0.4,0.2,0.7C112.2,46,112.1,46.4,111.9,46.7z"/>
	<path class="st0" d="M123.4,61.8c-0.4,0.9-0.9,1.7-1.6,2.4c-0.7,0.7-1.4,1.2-2.3,1.6c-0.9,0.4-1.8,0.6-2.7,0.6
		c-0.8,0-1.6-0.1-2.5-0.4c-0.9-0.3-1.7-0.7-2.4-1.4c-0.7-0.6-1.3-1.4-1.8-2.4c-0.5-1-0.7-2.1-0.7-3.4c0-0.9,0.2-1.9,0.5-2.7
		c0.4-0.9,0.9-1.7,1.5-2.3c0.6-0.7,1.4-1.2,2.3-1.6c0.9-0.4,1.9-0.6,3-0.6c0.8,0,1.6,0.2,2.5,0.5c0.8,0.3,1.6,0.8,2.3,1.4
		s1.2,1.4,1.7,2.3c0.4,0.9,0.7,2,0.7,3.2C124,59.9,123.8,60.9,123.4,61.8z M120.9,56.6c-0.2-0.8-0.4-1.5-0.8-2.2
		c-0.3-0.7-0.8-1.2-1.4-1.7c-0.6-0.4-1.3-0.7-2.1-0.7c-0.7,0-1.3,0.2-1.8,0.6c-0.5,0.4-1,0.9-1.4,1.6s-0.7,1.4-0.9,2.2
		c-0.2,0.8-0.3,1.7-0.3,2.5c0,0.9,0.1,1.8,0.2,2.7c0.2,0.8,0.4,1.6,0.8,2.2c0.4,0.6,0.8,1.2,1.4,1.5c0.6,0.4,1.3,0.6,2.1,0.6
		c0.8,0,1.5-0.2,2-0.7c0.5-0.5,1-1.1,1.3-1.8c0.3-0.7,0.6-1.5,0.7-2.3c0.2-0.8,0.2-1.6,0.2-2.3C121.1,58.1,121.1,57.4,120.9,56.6z"
		/>
	<path class="st0" d="M135.4,54.3c-0.3,0.3-0.6,0.4-0.9,0.4c-0.3,0-0.6-0.1-0.8-0.2c-0.2-0.1-0.4-0.2-0.5-0.4
		c-0.1-0.1-0.3-0.3-0.5-0.4s-0.4-0.2-0.7-0.2c-0.2,0-0.5,0.1-0.7,0.3s-0.5,0.4-0.7,0.7c-0.2,0.3-0.4,0.6-0.6,0.9
		c-0.2,0.3-0.3,0.7-0.4,1v8.8c0.1,0.2,0.2,0.3,0.4,0.4c0.2,0.1,0.4,0.2,0.7,0.2c0.3,0,0.5,0.1,0.8,0.1c0.3,0,0.5,0,0.7,0.1v0.3h-6.9
		v-0.3c0.5,0,0.9-0.1,1.2-0.3c0.3-0.1,0.5-0.4,0.5-0.7V54.7c0-0.2,0-0.3,0-0.4s-0.1-0.2-0.3-0.3c-0.2-0.1-0.4-0.2-0.6-0.4
		c-0.2-0.2-0.5-0.3-0.7-0.4v-0.2l4-1.6h0.2l-0.1,4.3h0.1c0.1-0.2,0.3-0.6,0.5-1.1s0.5-0.9,0.9-1.4c0.3-0.5,0.8-0.9,1.3-1.2
		c0.5-0.3,1.1-0.5,1.7-0.5c0.5,0,0.9,0.2,1.3,0.5s0.5,0.7,0.5,1.2C135.8,53.6,135.7,54,135.4,54.3z"/>
</g>
<g>
	<path class="st0" d="M167,87.6h-0.5v-7.8l-0.1-0.1c-0.6,0.9-1.3,1.8-2.1,2.8c-0.8,1-1.7,1.9-2.8,2.7c-1,0.8-2.2,1.4-3.4,1.9
		c-1.3,0.5-2.6,0.7-4,0.7c-3.3,0-5.7-1-7.3-2.9c-1.6-1.9-2.3-4.8-2.3-8.5V57.5c0-0.2,0-0.5,0-0.8c0-0.4,0-0.7-0.1-1.1
		c-0.1-0.4-0.1-0.7-0.1-1.1c0-0.3-0.1-0.6-0.2-0.7c-0.2-0.5-0.5-0.8-0.9-1c-0.4-0.2-0.8-0.4-1.3-0.5c-0.5-0.1-0.9-0.2-1.5-0.2
		c-0.5,0-1-0.1-1.5-0.1v-0.8h11.9v22.4c0,3.4,0.5,5.9,1.5,7.5c1,1.6,3,2.4,5.8,2.4c1.1,0,2-0.1,2.8-0.4c0.8-0.3,1.5-0.6,2.2-1.1
		c0.6-0.4,1.2-0.9,1.8-1.5c0.5-0.6,1-1.2,1.5-1.8V56.7c0-0.5-0.1-1.2-0.2-2c-0.1-0.8-0.3-1.4-0.6-1.8c-0.6-0.3-1.5-0.5-2.5-0.6
		c-1.1-0.2-2.1-0.3-3.3-0.4v-0.8h12.9v30.4c0,0.4,0,0.7,0.1,0.9c0.1,0.2,0.3,0.4,0.7,0.7c0.5,0.3,1.1,0.6,2,1c0.9,0.4,1.7,0.7,2.3,1
		v0.5L167,87.6z"/>
	<path class="st0" d="M206.4,81.5c-0.8,1.5-1.9,2.7-3.2,3.6c-1.3,0.9-2.9,1.6-4.6,2c-1.7,0.4-3.5,0.6-5.4,0.6
		c-2.3,0-4.4-0.2-6.4-0.6c-2-0.4-3.8-1-5.5-1.8V75.1h0.6c0.4,1.2,0.9,2.5,1.5,3.9c0.6,1.4,1.4,2.6,2.2,3.8c0.9,1.2,1.9,2.1,3.1,2.8
		c1.2,0.7,2.7,1.1,4.4,1.1c2.5,0,4.4-0.7,5.9-2.1c1.5-1.4,2.2-3.6,2.2-6.5c0-1.6-0.5-2.9-1.5-4c-1-1.1-2.4-1.8-4.1-2.1
		c-1.4-0.3-2.7-0.5-4-0.8c-1.3-0.3-2.4-0.6-3.4-1c-1.9-0.7-3.5-1.8-4.7-3.5c-1.2-1.6-1.8-3.6-1.8-5.9c0-1.6,0.3-3,1-4.3
		c0.7-1.3,1.6-2.4,2.7-3.3c1.1-0.9,2.4-1.6,3.9-2.1c1.5-0.5,3.1-0.7,4.8-0.7c2.2,0,4.1,0.2,5.7,0.6c1.6,0.4,3.2,0.9,4.7,1.4l0.9,9.5
		l-0.6,0.2c-0.7-1.5-1.4-3-2.2-4.3c-0.7-1.3-1.5-2.4-2.4-3.4c-0.9-0.9-1.9-1.7-3-2.2c-1.1-0.5-2.4-0.8-3.8-0.8
		c-0.9,0-1.7,0.2-2.6,0.5s-1.6,0.8-2.2,1.3c-0.6,0.6-1.2,1.3-1.6,2.2c-0.4,0.9-0.6,1.9-0.6,3.1c0,1.9,0.5,3.3,1.6,4.1
		c1.1,0.8,2.4,1.4,4.1,1.8c1.1,0.3,2.4,0.5,3.7,0.8c1.3,0.3,2.5,0.6,3.5,0.8c2.3,0.6,4.3,1.7,5.9,3.5c1.6,1.8,2.4,4,2.4,6.6
		C207.6,78.3,207.2,80,206.4,81.5z"/>
</g>
<g>
	<path class="st1" d="M239.1,41.4c0,1.5,0.2,2.9,0.6,4.3c0.6,2.2,2.7,3.8,5,3.8h1.9c2.1,0,3.8,1.7,3.8,3.8v3.5
		c1.5,0.5,3.2,0.7,4.8,0.7c4.1,0,7.8-1.5,10.7-4c1.3-1.1,2-2.7,2-4.4v-7.9l3.5,0C271.3,32.3,263.9,21,255,21l-6.1,0
		c-5.4,0-9.8,4.4-9.8,9.8V41.4z"/>
</g>
<g>
	<path class="st2" d="M266.3,45c-1.2,0.1-2.4,0.2-3.6,0.4c-0.3,0-0.5,0.1-0.7,0.3c-0.2,0.2-0.3,0.5-0.3,0.7c0,0.5,0.5,1.1,1.1,1.1
		c1.2-0.1,2.4-0.2,3.6-0.4c0.3,0,0.5-0.1,0.7-0.3c0.2-0.2,0.3-0.5,0.3-0.7C267.4,45.5,266.9,44.9,266.3,45L266.3,45z"/>
</g>
<path class="st1" d="M223.3,74.4l5.3-2.3l3.3-8.5l7.9-3.5l-0.7-7.3c-0.1-0.9,1-1.4,1.6-0.8l8.7,8.3c0,0,6.8,5.1,7.3,9.5l1.1,8.1
	c0.4,2.8-0.6,5.6-2.7,7.6l0,0c-3.6,3.4-8.4,5.3-13.3,5.3c0,0-9.5-3.3-15.5-5.8c-2.8-1.2-4.6-4.1-4.4-7.1l0,0
	C221.8,76.2,221.8,74.8,223.3,74.4z"/>
<g>
	<path class="st2" d="M234.4,69.8c-1.2,0.1-2.4,0.2-3.6,0.4c-0.3,0-0.5,0.1-0.7,0.3c-0.2,0.2-0.3,0.5-0.3,0.7c0,0.5,0.5,1.1,1.1,1.1
		c1.2-0.1,2.4-0.2,3.6-0.4c0.3,0,0.5-0.1,0.7-0.3c0.2-0.2,0.3-0.5,0.3-0.7C235.4,70.3,235,69.7,234.4,69.8L234.4,69.8z"/>
</g>
</svg>
